<?xml version="1.0" encoding="utf-8"?>
<!-- Generator: Adobe Illustrator 23.0.6, SVG Export Plug-In . SVG Version: 6.00 Build 0)  -->
<svg version="1.1" xmlns="http://www.w3.org/2000/svg" xmlns:xlink="http://www.w3.org/1999/xlink" x="0px" y="0px"
	 viewBox="0 0 612 705" style="enable-background:new 0 0 612 705;" xml:space="preserve">
<style type="text/css">
	.st0{fill:url(#SVGID_1_);}
	.st1{fill:url(#SVGID_2_);}
	.st2{fill:url(#SVGID_3_);}
	.st3{fill:url(#SVGID_4_);}
	.st4{fill:url(#SVGID_5_);}
	.st5{fill:url(#SVGID_6_);}
	.st6{fill:url(#SVGID_7_);}
	.st7{display:none;}
	.st8{display:inline;}
	.st9{fill:#B6D446;}
	.st10{fill:#FFFFFF;}
	.st11{fill:#845530;}
	.st12{fill:#F57F20;}
	.st13{display:inline;fill:url(#SVGID_8_);}
	.st14{display:inline;fill:url(#SVGID_9_);}
	.st15{display:inline;fill:url(#SVGID_10_);}
	.st16{fill:url(#SVGID_11_);}
	.st17{fill:url(#SVGID_12_);}
	.st18{fill:url(#SVGID_13_);}
	.st19{fill:url(#SVGID_14_);}
	.st20{fill:url(#SVGID_15_);}
	.st21{fill:url(#SVGID_16_);}
	.st22{fill:url(#SVGID_17_);}
	.st23{fill:url(#SVGID_18_);}
	.st24{fill:url(#SVGID_19_);}
	.st25{fill:url(#SVGID_20_);}
	.st26{fill:url(#SVGID_21_);}
	.st27{fill:url(#SVGID_22_);}
	.st28{fill:url(#SVGID_23_);}
	.st29{fill:url(#SVGID_24_);}
	.st30{fill:url(#SVGID_25_);}
	.st31{fill:url(#SVGID_26_);}
	.st32{fill:url(#SVGID_27_);}
	.st33{fill:url(#SVGID_28_);}
	.st34{fill:url(#SVGID_29_);}
	.st35{fill:url(#SVGID_30_);}
	.st36{fill:url(#SVGID_31_);}
	.st37{fill:url(#SVGID_32_);}
	.st38{fill:url(#SVGID_33_);}
	.st39{fill:url(#SVGID_34_);}
	.st40{fill:url(#SVGID_35_);}
	.st41{fill:url(#SVGID_36_);}
	.st42{fill:url(#SVGID_37_);}
	.st43{fill:url(#SVGID_38_);}
	.st44{fill:url(#SVGID_39_);}
	.st45{fill:url(#SVGID_40_);}
	.st46{fill:url(#SVGID_41_);}
	.st47{fill:url(#SVGID_42_);}
	.st48{fill:url(#SVGID_43_);}
	.st49{fill:url(#SVGID_44_);}
	.st50{fill:url(#SVGID_45_);}
	.st51{fill:url(#SVGID_46_);}
	.st52{fill:url(#SVGID_47_);}
	.st53{fill:url(#SVGID_48_);}
	.st54{fill:url(#SVGID_49_);}
	.st55{fill:url(#SVGID_50_);}
	.st56{fill:url(#SVGID_51_);}
	.st57{fill:url(#SVGID_52_);}
	.st58{fill:url(#SVGID_53_);}
	.st59{fill:url(#SVGID_54_);}
	.st60{fill:url(#SVGID_55_);}
	.st61{fill:url(#SVGID_56_);}
	.st62{fill:url(#SVGID_57_);}
	.st63{fill:url(#SVGID_58_);}
	.st64{fill:url(#SVGID_59_);}
	.st65{fill:url(#SVGID_60_);}
	.st66{fill:url(#SVGID_61_);}
	.st67{fill:url(#SVGID_62_);}
	.st68{fill:url(#SVGID_63_);}
	.st69{fill:url(#SVGID_64_);}
	.st70{fill:url(#SVGID_65_);}
	.st71{fill:url(#SVGID_66_);}
	.st72{fill:url(#SVGID_67_);}
	.st73{fill:url(#SVGID_68_);}
	.st74{fill:url(#SVGID_69_);}
	.st75{fill:url(#SVGID_70_);}
	.st76{fill:url(#SVGID_71_);}
	.st77{fill:url(#SVGID_72_);}
	.st78{fill:url(#SVGID_73_);}
	.st79{fill:url(#SVGID_74_);}
	.st80{fill:url(#SVGID_75_);}
	.st81{fill:url(#SVGID_76_);}
	.st82{fill:url(#SVGID_77_);}
	.st83{fill:url(#SVGID_78_);}
	.st84{fill:url(#SVGID_79_);}
	.st85{fill:url(#SVGID_80_);}
	.st86{fill:url(#SVGID_81_);}
	.st87{fill:url(#SVGID_82_);}
	.st88{fill:url(#SVGID_83_);}
	.st89{fill:url(#SVGID_84_);}
	.st90{fill:url(#SVGID_85_);}
	.st91{fill:url(#SVGID_86_);}
	.st92{fill:url(#SVGID_87_);}
	.st93{fill:url(#SVGID_88_);}
	.st94{fill:url(#SVGID_89_);}
	.st95{fill:url(#SVGID_90_);}
	.st96{fill:url(#SVGID_91_);}
	.st97{fill:url(#SVGID_92_);}
	.st98{fill:url(#SVGID_93_);}
	.st99{fill:url(#SVGID_94_);}
	.st100{fill:url(#SVGID_95_);}
	.st101{fill:url(#SVGID_96_);}
	.st102{fill:url(#SVGID_97_);}
	.st103{fill:url(#SVGID_98_);}
	.st104{fill:url(#SVGID_99_);}
	.st105{fill:url(#SVGID_100_);}
	.st106{fill:url(#SVGID_101_);}
	.st107{fill:url(#SVGID_102_);}
	.st108{fill:url(#SVGID_103_);}
	.st109{fill:url(#SVGID_104_);}
	.st110{fill:url(#SVGID_105_);}
	.st111{fill:url(#SVGID_106_);}
	.st112{fill:url(#SVGID_107_);}
	.st113{fill:url(#SVGID_108_);}
	.st114{fill:url(#SVGID_109_);}
	.st115{fill:url(#SVGID_110_);}
	.st116{fill:url(#SVGID_111_);}
	.st117{fill:url(#SVGID_112_);}
	.st118{fill:url(#SVGID_113_);}
	.st119{fill:url(#SVGID_114_);}
	.st120{fill:url(#SVGID_115_);}
	.st121{fill:url(#SVGID_116_);}
	.st122{fill:url(#SVGID_117_);}
	.st123{fill:url(#SVGID_118_);}
	.st124{fill:url(#SVGID_119_);}
	.st125{fill:url(#SVGID_120_);}
	.st126{fill:url(#SVGID_121_);}
	.st127{fill:url(#SVGID_122_);}
	.st128{fill:url(#SVGID_123_);}
	.st129{fill:url(#SVGID_124_);}
	.st130{fill:url(#SVGID_125_);}
	.st131{fill:url(#SVGID_126_);}
	.st132{fill:url(#SVGID_127_);}
	.st133{fill:url(#SVGID_128_);}
	.st134{fill:url(#SVGID_129_);}
	.st135{fill:url(#SVGID_130_);}
	.st136{fill:url(#SVGID_131_);}
	.st137{fill:url(#SVGID_132_);}
	.st138{fill:url(#SVGID_133_);}
	.st139{fill:url(#SVGID_134_);}
	.st140{fill:url(#SVGID_135_);}
	.st141{fill:url(#SVGID_136_);}
	.st142{fill:url(#SVGID_137_);}
	.st143{fill:#FABCAE;}
	.st144{fill:#B6D444;}
	.st145{fill:#D9C2DE;}
	.st146{fill:#FCDD51;}
	.st147{fill:#FDBD5A;}
	.st148{fill:#F15B2D;}
	.st149{fill:#845630;}
	.st150{fill:#BADFF1;}
	.st151{opacity:0.6;fill:#B6D444;enable-background:new    ;}
	.st152{fill:url(#SVGID_138_);}
	.st153{fill:url(#SVGID_139_);}
	.st154{fill:url(#SVGID_140_);}
	.st155{fill:url(#SVGID_141_);}
	.st156{fill:url(#SVGID_142_);}
	.st157{fill:url(#SVGID_143_);}
	.st158{fill:none;}
	.st159{fill:#855630;}
	.st160{fill:url(#SVGID_144_);}
	.st161{fill:url(#SVGID_145_);}
	.st162{fill:url(#SVGID_146_);}
	.st163{fill:url(#SVGID_147_);}
	.st164{fill:url(#SVGID_148_);}
	.st165{fill:url(#SVGID_149_);}
	.st166{fill:url(#SVGID_150_);}
	.st167{fill:#F58020;}
	.st168{fill:url(#SVGID_151_);}
	.st169{fill:url(#SVGID_152_);}
	.st170{fill:url(#SVGID_153_);}
	.st171{fill:url(#SVGID_154_);}
	.st172{fill:url(#SVGID_155_);}
	.st173{fill:url(#SVGID_156_);}
	.st174{fill:url(#SVGID_157_);}
	.st175{fill:url(#SVGID_158_);}
	.st176{fill:url(#SVGID_159_);}
	.st177{fill:url(#SVGID_160_);}
	.st178{fill:url(#SVGID_161_);}
	.st179{fill:url(#SVGID_162_);}
	.st180{fill:url(#SVGID_163_);}
	.st181{fill:url(#SVGID_164_);}
	.st182{fill:url(#SVGID_165_);}
	.st183{fill:url(#SVGID_166_);}
	.st184{fill:url(#SVGID_167_);}
	.st185{fill:url(#SVGID_168_);}
	.st186{fill:url(#SVGID_169_);}
	.st187{fill:url(#SVGID_170_);}
</style>
<g id="Mature_Tree">
	<g id="Layer_2">
	</g>
	<g id="Layer_2_copy" class="st7">
	</g>
	<g id="Layer_1">
	</g>
	<g id="Layer_13" class="st7">
	</g>
	<g id="Layer_13_copy" class="st7">
	</g>
</g>
<g id="Mat_Tree_Sparse">
	<g id="Layer_2_copy_2_1_">
	</g>
	<g id="Layer_1_copy">
	</g>
</g>
<g id="Mat_Tree_Sparse2">
	<g id="Layer_2_copy_3">
	</g>
	<g id="Layer_1_copy_2">
	</g>
</g>
<g id="Mat_Tree_dead">
	<g id="Layer_1_copy_3">
	</g>
</g>
<g id="Young_Tree">
	<g id="Layer_6">
	</g>
	<g id="Layer_6_copy">
	</g>
	<g id="Layer_5">
	</g>
</g>
<g id="Baby_Tree">
	<g id="Layer_10">
	</g>
	<g id="Layer_10_copy">
	</g>
	<g id="Layer_9">
	</g>
</g>
<g id="sprout">
	<g id="Layer_24">
	</g>
	<g id="Layer_24_copy">
	</g>
	<g id="Layer_25">
	</g>
</g>
<g id="Young_Tree_pink">
	<g id="Layer_6_copy_2">
	</g>
	<g id="Layer_5_copy">
	</g>
</g>
<g id="Baby_Tree_pink">
	<g id="Layer_10_copy_2">
	</g>
	<g id="Layer_9_copy">
	</g>
</g>
<g id="sprout_pink">
	<g id="Layer_24_copy_2_1_">
	</g>
	<g id="Layer_24_copy_2">
	</g>
	<g id="Layer_25_copy">
	</g>
</g>
<g id="Young_Tree_purple">
	<g id="Layer_6_copy_3">
	</g>
	<g id="Layer_5_copy_2">
	</g>
</g>
<g id="Baby_Tree_purple">
	<g id="Layer_10_copy_3">
	</g>
	<g id="Layer_9_copy_2">
	</g>
</g>
<g id="sprout_purple_1_">
	<g id="Layer_24_copy_3_1_">
	</g>
	<g id="Layer_24_copy_3">
	</g>
	<g id="Layer_25_copy_2">
	</g>
</g>
<g id="Young_Tree_orange_1_">
	<g id="Layer_6_copy_4">
	</g>
	<g id="Layer_5_copy_3">
	</g>
</g>
<g id="Baby_Tree_orange_1_">
	<g id="Layer_10_copy_4">
	</g>
	<g id="Layer_9_copy_3">
	</g>
</g>
<g id="sprout_purple">
	<g id="Layer_24_copy_4_1_">
	</g>
	<g id="Layer_24_copy_4">
	</g>
	<g id="Layer_25_copy_3">
	</g>
</g>
<g id="Young_Tree_red">
	<g id="Layer_6_copy_5">
	</g>
	<g id="Layer_5_copy_4">
	</g>
</g>
<g id="Baby_Tree_red">
	<g id="Layer_10_copy_5">
	</g>
	<g id="Layer_9_copy_4">
	</g>
</g>
<g id="sprout_red">
	<g id="Layer_24_copy_5_1_">
	</g>
	<g id="Layer_24_copy_5">
	</g>
	<g id="Layer_25_copy_4">
	</g>
	<g id="Layer_25_copy_5">
	</g>
</g>
<g id="Young_Tree_yellow">
	<g id="Layer_6_copy_6">
	</g>
	<g id="Layer_5_copy_5">
	</g>
</g>
<g id="Baby_Tree_yellow">
	<g id="Layer_10_copy_6">
	</g>
	<g id="Layer_9_copy_5">
	</g>
</g>
<g id="sprout_yellow">
	<g id="Layer_24_copy_6_1_">
	</g>
	<g id="Layer_24_copy_6">
	</g>
	<g id="Layer_25_copy_6_1_">
	</g>
	<g id="Layer_25_copy_6">
	</g>
</g>
<g id="Layer_79">
</g>
<g id="Layer_80">
	<g id="Layer_79_1_">
		<rect class="st150" width="612" height="485.67"/>
		<rect y="485.67" class="st151" width="612" height="219.33"/>
		<g>
			
				<linearGradient id="SVGID_1_" gradientUnits="userSpaceOnUse" x1="481.48" y1="2745.7224" x2="481.48" y2="2174.9336" gradientTransform="matrix(1 0 0 -1 0 2981.241)">
				<stop  offset="0" style="stop-color:#FABCAE"/>
				<stop  offset="1" style="stop-color:#EF3A36"/>
			</linearGradient>
			<circle class="st0" cx="481.48" cy="158.97" r="92.75"/>
			
				<linearGradient id="SVGID_2_" gradientUnits="userSpaceOnUse" x1="396.5901" y1="2745.7224" x2="396.5901" y2="2174.9338" gradientTransform="matrix(1 0 0 -1 0 2981.241)">
				<stop  offset="0" style="stop-color:#FABCAE"/>
				<stop  offset="1" style="stop-color:#EF3A36"/>
			</linearGradient>
			<circle class="st1" cx="396.59" cy="195.1" r="73.63"/>
			
				<linearGradient id="SVGID_3_" gradientUnits="userSpaceOnUse" x1="407.2299" y1="2745.7224" x2="407.2299" y2="2174.9338" gradientTransform="matrix(1 0 0 -1 0 2981.241)">
				<stop  offset="0" style="stop-color:#FABCAE"/>
				<stop  offset="1" style="stop-color:#EF3A36"/>
			</linearGradient>
			<path class="st2" d="M507.82,303.92c0,55.56-45.03,100.59-100.59,100.59c-55.55,0-100.59-45.03-100.59-100.59
				c0-55.55,45.04-100.59,100.59-100.59C462.79,203.33,507.82,248.36,507.82,303.92z"/>
			
				<linearGradient id="SVGID_4_" gradientUnits="userSpaceOnUse" x1="552.26" y1="2745.7224" x2="552.26" y2="2174.9326" gradientTransform="matrix(1 0 0 -1 0 2981.241)">
				<stop  offset="0" style="stop-color:#FABCAE"/>
				<stop  offset="1" style="stop-color:#EF3A36"/>
			</linearGradient>
			<circle class="st3" cx="552.26" cy="228.6" r="70.78"/>
			
				<linearGradient id="SVGID_5_" gradientUnits="userSpaceOnUse" x1="522.55" y1="2745.7224" x2="522.55" y2="2174.9343" gradientTransform="matrix(1 0 0 -1 0 2981.241)">
				<stop  offset="0" style="stop-color:#FABCAE"/>
				<stop  offset="1" style="stop-color:#EF3A36"/>
			</linearGradient>
			<circle class="st4" cx="522.55" cy="308.01" r="85.46"/>
			
				<linearGradient id="SVGID_6_" gradientUnits="userSpaceOnUse" x1="481.48" y1="2745.7224" x2="481.48" y2="2174.9331" gradientTransform="matrix(1 0 0 -1 0 2981.241)">
				<stop  offset="0" style="stop-color:#FABCAE"/>
				<stop  offset="1" style="stop-color:#EF3A36"/>
			</linearGradient>
			<circle class="st5" cx="481.48" cy="373.53" r="50.44"/>
			<g>
				<g>
					<polygon class="st159" points="477.16,214.04 486.59,578.49 460.59,578.49 470.02,214.04 					"/>
				</g>
				<g>
					<line class="st158" x1="415.13" y1="282.82" x2="472.69" y2="389.39"/>
					<polygon class="st159" points="417.92,281.31 479.86,385.52 465.52,393.26 412.35,284.32 					"/>
				</g>
				<g>
					<line class="st158" x1="405.47" y1="323.37" x2="442.42" y2="333.79"/>
					<polygon class="st159" points="406.15,320.96 444.11,327.81 440.73,339.77 404.79,325.78 					"/>
				</g>
				<g>
					<path class="st159" d="M464.28,430.94c4.26-7.49,8.53-14.98,12.88-22.43c4.3-7.47,8.71-14.89,13.07-22.33
						c4.35-7.45,8.82-14.84,13.23-22.25c4.48-7.38,8.96-14.77,13.56-22.09l5.48,2.74c-3.09,8.08-6.31,16.09-9.52,24.11
						c-3.28,7.98-6.5,15.99-9.85,23.94c-3.33,7.96-6.62,15.94-10.01,23.86c-3.35,7.95-6.78,15.86-10.21,23.76L464.28,430.94z"/>
				</g>
				<g>
					<line class="st158" x1="472.69" y1="311.27" x2="506.13" y2="269.37"/>
					<polygon class="st159" points="468.04,307.56 503.77,267.49 508.49,271.25 477.34,314.98 					"/>
				</g>
			</g>
		</g>
		<g>
			
				<linearGradient id="SVGID_7_" gradientUnits="userSpaceOnUse" x1="372.4868" y1="2574.6182" x2="347.5405" y2="2515.9951" gradientTransform="matrix(1 0 0 -1 0 2981.241)">
				<stop  offset="0.0242" style="stop-color:#FEDD50"/>
				<stop  offset="1" style="stop-color:#FCC217"/>
			</linearGradient>
			<path class="st6" d="M421.48,375.95c0,15.82-16.09,28.65-35.94,28.65s-35.94-12.83-35.94-28.65c0-15.83,16.09-28.65,35.94-28.65
				S421.48,360.13,421.48,375.95z"/>
			
				<linearGradient id="SVGID_8_" gradientUnits="userSpaceOnUse" x1="368.2708" y1="2576.4294" x2="343.3245" y2="2517.8064" gradientTransform="matrix(1 0 0 -1 0 2981.241)">
				<stop  offset="0.0242" style="stop-color:#FEDD50"/>
				<stop  offset="1" style="stop-color:#FCC217"/>
			</linearGradient>
			<path style="fill:url(#SVGID_8_);" d="M401.46,406.08c0-14.85-15.1-26.89-33.73-26.89S334,391.23,334,406.08
				c0,14.85,15.1,26.89,33.73,26.89C386.36,432.98,401.46,420.94,401.46,406.08z"/>
			
				<linearGradient id="SVGID_9_" gradientUnits="userSpaceOnUse" x1="400.9091" y1="2565.0339" x2="375.9629" y2="2506.4106" gradientTransform="matrix(1 0 0 -1 0 2981.241)">
				<stop  offset="0.0242" style="stop-color:#FEDD50"/>
				<stop  offset="1" style="stop-color:#FCC217"/>
			</linearGradient>
			<path style="fill:url(#SVGID_9_);" d="M443.84,390.52c0,14.09-14.33,25.52-32,25.52c-17.67,0-32-11.42-32-25.52
				c0-14.09,14.33-25.52,32-25.52C429.52,365.01,443.84,376.43,443.84,390.52z"/>
			
				<linearGradient id="SVGID_10_" gradientUnits="userSpaceOnUse" x1="455.3062" y1="2547.1328" x2="430.36" y2="2488.5103" gradientTransform="matrix(1 0 0 -1 0 2981.241)">
				<stop  offset="0.0242" style="stop-color:#FEDD50"/>
				<stop  offset="1" style="stop-color:#FCC217"/>
			</linearGradient>
			<path style="fill:url(#SVGID_10_);" d="M424.1,455.11c0,9.8,9.97,17.75,22.27,17.75s22.27-7.95,22.27-17.75
				s-9.97-17.75-22.27-17.75C434.07,437.35,424.1,445.3,424.1,455.11z"/>
			
				<linearGradient id="SVGID_11_" gradientUnits="userSpaceOnUse" x1="476.2225" y1="2539.8755" x2="451.2761" y2="2481.2524" gradientTransform="matrix(1 0 0 -1 0 2981.241)">
				<stop  offset="0.0242" style="stop-color:#FEDD50"/>
				<stop  offset="1" style="stop-color:#FCC217"/>
			</linearGradient>
			<path class="st16" d="M456.26,448.83c0,7.39,7.51,13.38,16.79,13.38s16.78-5.99,16.78-13.38s-7.51-13.38-16.78-13.38
				S456.26,441.44,456.26,448.83z"/>
			
				<linearGradient id="SVGID_12_" gradientUnits="userSpaceOnUse" x1="397.5237" y1="2566.5107" x2="372.5774" y2="2507.8875" gradientTransform="matrix(1 0 0 -1 0 2981.241)">
				<stop  offset="0.0242" style="stop-color:#FEDD50"/>
				<stop  offset="1" style="stop-color:#FCC217"/>
			</linearGradient>
			<path class="st17" d="M430.81,416.56c0,15-15.25,27.16-34.06,27.16s-34.07-12.16-34.07-27.16s15.25-27.16,34.07-27.16
				C415.56,389.4,430.81,401.56,430.81,416.56z"/>
			
				<linearGradient id="SVGID_13_" gradientUnits="userSpaceOnUse" x1="457.2628" y1="2546.2476" x2="432.3166" y2="2487.6248" gradientTransform="matrix(1 0 0 -1 0 2981.241)">
				<stop  offset="0.0242" style="stop-color:#FEDD50"/>
				<stop  offset="1" style="stop-color:#FCC217"/>
			</linearGradient>
			<path class="st18" d="M477.46,437.35c0,9.33-9.49,16.9-21.2,16.9s-21.2-7.57-21.2-16.9s9.49-16.9,21.2-16.9
				S477.46,428.02,477.46,437.35z"/>
			<g>
				<g>
					<polygon class="st159" points="415.66,388.3 421.12,624.04 403.06,624.04 408.52,388.3 					"/>
				</g>
				<g>
					<line class="st158" x1="383.46" y1="413.21" x2="411.84" y2="455.11"/>
					<polygon class="st159" points="386.08,411.44 416.11,452.22 407.57,458 380.84,414.99 					"/>
				</g>
				<g>
					<polygon class="st159" points="406.42,496.53 443.77,443.22 448.96,446.47 417.27,503.33 					"/>
				</g>
			</g>
		</g>
		<g>
			
				<linearGradient id="SVGID_14_" gradientUnits="userSpaceOnUse" x1="275.1499" y1="2895.917" x2="275.1499" y2="2521.6812" gradientTransform="matrix(1 0 0 -1 0 2981.241)">
				<stop  offset="0" style="stop-color:#B7D545"/>
				<stop  offset="1" style="stop-color:#70B944"/>
			</linearGradient>
			<ellipse class="st19" cx="275.15" cy="192.56" rx="102.87" ry="100.93"/>
			
				<linearGradient id="SVGID_15_" gradientUnits="userSpaceOnUse" x1="349.1899" y1="2895.9163" x2="349.1899" y2="2521.6829" gradientTransform="matrix(1 0 0 -1 0 2981.241)">
				<stop  offset="0" style="stop-color:#B7D545"/>
				<stop  offset="1" style="stop-color:#70B944"/>
			</linearGradient>
			<ellipse class="st20" cx="349.19" cy="278.9" rx="76.75" ry="75.3"/>
			
				<linearGradient id="SVGID_16_" gradientUnits="userSpaceOnUse" x1="155.4102" y1="2895.917" x2="155.4102" y2="2521.6804" gradientTransform="matrix(1 0 0 -1 0 2981.241)">
				<stop  offset="0" style="stop-color:#B7D545"/>
				<stop  offset="1" style="stop-color:#70B944"/>
			</linearGradient>
			<path class="st21" d="M80.37,331.75c0,39.67,33.6,71.84,75.04,71.84s75.04-32.16,75.04-71.84c0-39.67-33.6-71.83-75.04-71.83
				S80.37,292.08,80.37,331.75z"/>
			
				<linearGradient id="SVGID_17_" gradientUnits="userSpaceOnUse" x1="147.72" y1="2895.9167" x2="147.72" y2="2521.6829" gradientTransform="matrix(1 0 0 -1 0 2981.241)">
				<stop  offset="0" style="stop-color:#B7D545"/>
				<stop  offset="1" style="stop-color:#70B944"/>
			</linearGradient>
			<ellipse class="st22" cx="147.72" cy="207.55" rx="87.59" ry="85.93"/>
			
				<linearGradient id="SVGID_18_" gradientUnits="userSpaceOnUse" x1="80.3801" y1="2895.9167" x2="80.3801" y2="2521.6814" gradientTransform="matrix(1 0 0 -1 0 2981.241)">
				<stop  offset="0" style="stop-color:#B7D545"/>
				<stop  offset="1" style="stop-color:#70B944"/>
			</linearGradient>
			<path class="st23" d="M16.51,274.81c0,34.61,28.59,62.66,63.87,62.66s63.87-28.05,63.87-62.66c0-34.61-28.59-62.66-63.87-62.66
				S16.51,240.21,16.51,274.81z"/>
			
				<linearGradient id="SVGID_19_" gradientUnits="userSpaceOnUse" x1="272.4299" y1="2895.9177" x2="272.4299" y2="2521.6821" gradientTransform="matrix(1 0 0 -1 0 2981.241)">
				<stop  offset="0" style="stop-color:#B7D545"/>
				<stop  offset="1" style="stop-color:#70B944"/>
			</linearGradient>
			<path class="st24" d="M197.39,331.75c0,39.67,33.6,71.84,75.04,71.84c41.45,0,75.04-32.16,75.04-71.84
				c0-39.67-33.6-71.83-75.04-71.83S197.39,292.08,197.39,331.75z"/>
			
				<linearGradient id="SVGID_20_" gradientUnits="userSpaceOnUse" x1="209.9299" y1="2895.9172" x2="209.9299" y2="2521.6821" gradientTransform="matrix(1 0 0 -1 0 2981.241)">
				<stop  offset="0" style="stop-color:#B7D545"/>
				<stop  offset="1" style="stop-color:#70B944"/>
			</linearGradient>
			<ellipse class="st25" cx="209.93" cy="278.11" rx="30.57" ry="30.88"/>
			<g>
				<g>
					<polygon class="st159" points="215.08,201.8 231.97,602.62 189.97,602.62 206.85,201.8 					"/>
				</g>
				<g>
					<line class="st158" x1="129.89" y1="256.84" x2="210.97" y2="348.46"/>
					<polygon class="st159" points="132.15,254.85 218.08,342.16 203.85,354.75 127.64,258.84 					"/>
				</g>
				<g>
					<line class="st158" x1="129.89" y1="298.03" x2="170.43" y2="302.65"/>
					<polygon class="st159" points="130.31,294.35 171.32,294.82 169.54,310.48 129.48,301.72 					"/>
				</g>
				<g>
					<polygon class="st159" points="204.14,386.7 293.55,322.65 291.47,326.13 308.02,246.26 315.15,247.54 302.75,328.17 
						302.46,330.09 300.67,331.65 217.8,403.95 					"/>
				</g>
				<g>
					<line class="st158" x1="254.17" y1="361.13" x2="328.24" y2="339.22"/>
					<polygon class="st159" points="252.47,355.38 327.28,335.98 329.2,342.47 255.88,366.89 					"/>
				</g>
				<g>
					<line class="st158" x1="210.24" y1="290.24" x2="279.73" y2="221.35"/>
					<polygon class="st159" points="204.25,284.2 277.2,218.79 282.26,223.91 216.22,296.27 					"/>
				</g>
			</g>
		</g>
		<g>
			
				<linearGradient id="SVGID_21_" gradientUnits="userSpaceOnUse" x1="-7173.3374" y1="2575.3831" x2="-7181.5449" y2="2546.4404" gradientTransform="matrix(-1 0 0 -1 -7029.0454 2981.241)">
				<stop  offset="0.0242" style="stop-color:#F15B2B"/>
				<stop  offset="1" style="stop-color:#C13F27"/>
			</linearGradient>
			<path class="st26" d="M102.16,366.78c0,17.15,13.9,31.05,31.05,31.05c17.15,0,31.05-13.9,31.05-31.05
				c0-17.15-13.9-31.05-31.05-31.05C116.06,335.74,102.16,349.64,102.16,366.78z"/>
			
				<linearGradient id="SVGID_22_" gradientUnits="userSpaceOnUse" x1="-7179.0024" y1="2576.989" x2="-7187.21" y2="2548.0466" gradientTransform="matrix(-1 0 0 -1 -7029.0454 2981.241)">
				<stop  offset="0.0242" style="stop-color:#F15B2B"/>
				<stop  offset="1" style="stop-color:#C13F27"/>
			</linearGradient>
			<path class="st27" d="M119.45,399.43c0-16.09,13.05-29.14,29.14-29.14c16.09,0,29.14,13.05,29.14,29.14
				c0,16.1-13.05,29.14-29.14,29.14C132.5,428.57,119.45,415.53,119.45,399.43z"/>
			
				<linearGradient id="SVGID_23_" gradientUnits="userSpaceOnUse" x1="-7148.1548" y1="2568.2412" x2="-7156.3623" y2="2539.2986" gradientTransform="matrix(-1 0 0 -1 -7029.0454 2981.241)">
				<stop  offset="0.0242" style="stop-color:#F15B2B"/>
				<stop  offset="1" style="stop-color:#C13F27"/>
			</linearGradient>
			<path class="st28" d="M82.83,382.57c0,15.27,12.38,27.65,27.65,27.65s27.65-12.38,27.65-27.65s-12.38-27.65-27.65-27.65
				C95.21,354.92,82.83,367.3,82.83,382.57z"/>
			
				<linearGradient id="SVGID_24_" gradientUnits="userSpaceOnUse" x1="-7102.1748" y1="2555.2026" x2="-7110.3823" y2="2526.2598" gradientTransform="matrix(-1 0 0 -1 -7029.0454 2981.241)">
				<stop  offset="0.0242" style="stop-color:#F15B2B"/>
				<stop  offset="1" style="stop-color:#C13F27"/>
			</linearGradient>
			<path class="st29" d="M99.89,452.56c0,10.62-8.61,19.24-19.24,19.24c-10.62,0-19.24-8.61-19.24-19.24s8.61-19.24,19.24-19.24
				C91.28,433.32,99.89,441.93,99.89,452.56z"/>
			
				<linearGradient id="SVGID_25_" gradientUnits="userSpaceOnUse" x1="-7082.6372" y1="2549.6616" x2="-7090.8447" y2="2520.7192" gradientTransform="matrix(-1 0 0 -1 -7029.0454 2981.241)">
				<stop  offset="0.0242" style="stop-color:#F15B2B"/>
				<stop  offset="1" style="stop-color:#C13F27"/>
			</linearGradient>
			<path class="st30" d="M72.11,445.75c0,8.01-6.49,14.5-14.5,14.5s-14.5-6.49-14.5-14.5s6.49-14.5,14.5-14.5
				S72.11,437.74,72.11,445.75z"/>
			
				<linearGradient id="SVGID_26_" gradientUnits="userSpaceOnUse" x1="-7152.8193" y1="2569.5642" x2="-7161.0269" y2="2540.6218" gradientTransform="matrix(-1 0 0 -1 -7029.0454 2981.241)">
				<stop  offset="0.0242" style="stop-color:#F15B2B"/>
				<stop  offset="1" style="stop-color:#C13F27"/>
			</linearGradient>
			<path class="st31" d="M94.09,410.78c0,16.26,13.18,29.43,29.43,29.43s29.43-13.18,29.43-29.43s-13.18-29.43-29.43-29.43
				C107.27,381.35,94.09,394.53,94.09,410.78z"/>
			
				<linearGradient id="SVGID_27_" gradientUnits="userSpaceOnUse" x1="-7099.3159" y1="2554.3914" x2="-7107.5234" y2="2525.4492" gradientTransform="matrix(-1 0 0 -1 -7029.0454 2981.241)">
				<stop  offset="0.0242" style="stop-color:#F15B2B"/>
				<stop  offset="1" style="stop-color:#C13F27"/>
			</linearGradient>
			<path class="st32" d="M53.79,433.32c0,10.11,8.2,18.32,18.32,18.32c10.11,0,18.31-8.2,18.31-18.32c0-10.11-8.2-18.32-18.31-18.32
				C61.99,415,53.79,423.2,53.79,433.32z"/>
			<g>
				<g>
					<polygon class="st159" points="113.84,380.16 119.29,635.61 101.24,635.61 106.69,380.16 					"/>
				</g>
				<g>
					<line class="st158" x1="135" y1="407.16" x2="110.48" y2="452.56"/>
					<polygon class="st159" points="137.79,408.66 115.02,455.01 105.95,450.11 132.22,405.65 					"/>
				</g>
				<g>
					<polygon class="st159" points="104.76,503.98 77.92,442.8 83.4,440.07 116.21,498.26 					"/>
				</g>
			</g>
		</g>
		<g>
			
				<linearGradient id="SVGID_28_" gradientUnits="userSpaceOnUse" x1="-960.835" y1="2450.344" x2="-960.335" y2="2450.344" gradientTransform="matrix(1 0 0 -1 0 2981.241)">
				<stop  offset="0.0242" style="stop-color:#DAC2DE"/>
				<stop  offset="1" style="stop-color:#B795B5"/>
			</linearGradient>
			<path class="st33" d="M255.95,517.09c7.62,2.86,11.49,11.37,8.62,18.99c-2.86,7.63-11.37,11.49-18.99,8.62
				c-7.62-2.86-11.49-11.37-8.62-18.99C239.82,518.08,248.33,514.23,255.95,517.09z"/>
			
				<linearGradient id="SVGID_29_" gradientUnits="userSpaceOnUse" x1="-960.8379" y1="2451.47" x2="-960.3379" y2="2451.47" gradientTransform="matrix(1 0 0 -1 0 2981.241)">
				<stop  offset="0.0242" style="stop-color:#DAC2DE"/>
				<stop  offset="1" style="stop-color:#B795B5"/>
			</linearGradient>
			<path class="st34" d="M224.08,520.88c0,0,14.55-10.29,32.45-3.57l-11.42,27.2"/>
			
				<linearGradient id="SVGID_30_" gradientUnits="userSpaceOnUse" x1="-960.8384" y1="2448.3359" x2="-960.3384" y2="2448.3359" gradientTransform="matrix(1 0 0 -1 0 2981.241)">
				<stop  offset="0.0242" style="stop-color:#DAC2DE"/>
				<stop  offset="1" style="stop-color:#B795B5"/>
			</linearGradient>
			<path class="st35" d="M224.08,520.88c0,0,4.08,16.95,21.5,23.82c0.19,0.08,0.38,0.15,0.58,0.23"/>
			
				<linearGradient id="SVGID_31_" gradientUnits="userSpaceOnUse" x1="-960.8103" y1="2438.0261" x2="-960.3103" y2="2438.0261" gradientTransform="matrix(1 0 0 -1 0 2981.241)">
				<stop  offset="0.0242" style="stop-color:#DAC2DE"/>
				<stop  offset="1" style="stop-color:#B795B5"/>
			</linearGradient>
			<path class="st36" d="M310.85,557.6c-7.94,1.8-15.84-3.17-17.65-11.12c-1.8-7.94,3.17-15.85,11.12-17.65
				c7.95-1.8,15.85,3.17,17.65,11.12C323.77,547.9,318.8,555.8,310.85,557.6z"/>
			
				<linearGradient id="SVGID_32_" gradientUnits="userSpaceOnUse" x1="-960.8428" y1="2438.011" x2="-960.3428" y2="2438.011" gradientTransform="matrix(1 0 0 -1 0 2981.241)">
				<stop  offset="0.0242" style="stop-color:#DAC2DE"/>
				<stop  offset="1" style="stop-color:#B795B5"/>
			</linearGradient>
			<path class="st37" d="M335.38,536.9c0,0-6.48,16.6-25.13,20.83l-5.43-29"/>
			
				<linearGradient id="SVGID_33_" gradientUnits="userSpaceOnUse" x1="-960.8428" y1="2448.7559" x2="-960.3428" y2="2448.7559" gradientTransform="matrix(1 0 0 -1 0 2981.241)">
				<stop  offset="0.0242" style="stop-color:#DAC2DE"/>
				<stop  offset="1" style="stop-color:#B795B5"/>
			</linearGradient>
			<path class="st38" d="M335.38,536.9c0,0-12.73-11.9-31.06-8.07c-0.21,0.04-0.41,0.09-0.61,0.13"/>
			<g>
				<path class="st159" d="M261.02,609.11c0.37-7.79,1.51-15.54,3.68-23c2.14-7.46,5.2-14.66,9.34-21.21
					c4.13-6.53,9.38-12.45,15.8-16.79c3.2-2.16,6.68-3.93,10.37-5.03c3.68-1.12,7.52-1.64,11.31-1.49v1.05
					c-7.37,0.35-14.33,3.33-19.88,7.92c-5.6,4.56-9.96,10.46-13.25,16.85c-3.29,6.4-5.51,13.31-6.88,20.35
					c-1.38,7.04-1.78,14.24-1.5,21.36h-8.99V609.11z"/>
			</g>
			<g>
				<path class="st159" d="M270.02,575.36c0.87-4.75,1.14-9.62,0.69-14.45c-0.45-4.82-1.62-9.59-3.6-14.03
					c-1.98-4.43-4.78-8.52-8.41-11.76c-3.61-3.25-8.08-5.59-12.91-6.53l0.17-1.03c5.07,0.72,9.9,2.95,13.89,6.2
					c4.01,3.24,7.2,7.44,9.53,12.04s3.83,9.62,4.56,14.73c0.74,5.12,0.71,10.34,0.02,15.49L270.02,575.36z"/>
			</g>
		</g>
	</g>
</g>
</svg>
