<?xml version="1.0" encoding="utf-8"?>
<!-- Generator: Adobe Illustrator 23.0.6, SVG Export Plug-In . SVG Version: 6.00 Build 0)  -->
<svg version="1.1" xmlns="http://www.w3.org/2000/svg" xmlns:xlink="http://www.w3.org/1999/xlink" x="0px" y="0px"
	 viewBox="0 0 612 792" style="enable-background:new 0 0 612 792;" xml:space="preserve">
<style type="text/css">
	.st0{fill:url(#SVGID_1_);}
	.st1{fill:url(#SVGID_2_);}
	.st2{fill:url(#SVGID_3_);}
	.st3{fill:url(#SVGID_4_);}
	.st4{fill:url(#SVGID_5_);}
	.st5{fill:url(#SVGID_6_);}
	.st6{fill:url(#SVGID_7_);}
	.st7{display:none;}
	.st8{display:inline;}
	.st9{fill:#B6D446;}
	.st10{fill:#FFFFFF;}
	.st11{fill:#845530;}
	.st12{fill:#F57F20;}
	.st13{display:inline;fill:url(#SVGID_8_);}
	.st14{display:inline;fill:url(#SVGID_9_);}
	.st15{display:inline;fill:url(#SVGID_10_);}
	.st16{fill:url(#SVGID_11_);}
	.st17{fill:url(#SVGID_12_);}
	.st18{fill:url(#SVGID_13_);}
	.st19{fill:url(#SVGID_14_);}
	.st20{fill:url(#SVGID_15_);}
	.st21{fill:url(#SVGID_16_);}
	.st22{fill:url(#SVGID_17_);}
	.st23{fill:url(#SVGID_18_);}
	.st24{fill:url(#SVGID_19_);}
	.st25{fill:url(#SVGID_20_);}
	.st26{fill:url(#SVGID_21_);}
	.st27{fill:url(#SVGID_22_);}
	.st28{fill:url(#SVGID_23_);}
	.st29{fill:url(#SVGID_24_);}
	.st30{fill:url(#SVGID_25_);}
	.st31{fill:url(#SVGID_26_);}
	.st32{fill:url(#SVGID_27_);}
	.st33{fill:url(#SVGID_28_);}
	.st34{fill:url(#SVGID_29_);}
	.st35{fill:url(#SVGID_30_);}
	.st36{fill:url(#SVGID_31_);}
	.st37{fill:url(#SVGID_32_);}
	.st38{fill:url(#SVGID_33_);}
	.st39{fill:url(#SVGID_34_);}
	.st40{fill:url(#SVGID_35_);}
	.st41{fill:url(#SVGID_36_);}
	.st42{fill:url(#SVGID_37_);}
	.st43{fill:url(#SVGID_38_);}
	.st44{fill:url(#SVGID_39_);}
	.st45{fill:url(#SVGID_40_);}
	.st46{fill:url(#SVGID_41_);}
	.st47{fill:url(#SVGID_42_);}
	.st48{fill:url(#SVGID_43_);}
	.st49{fill:url(#SVGID_44_);}
	.st50{fill:url(#SVGID_45_);}
	.st51{fill:url(#SVGID_46_);}
	.st52{fill:url(#SVGID_47_);}
	.st53{fill:url(#SVGID_48_);}
	.st54{fill:url(#SVGID_49_);}
	.st55{fill:url(#SVGID_50_);}
	.st56{fill:url(#SVGID_51_);}
	.st57{fill:url(#SVGID_52_);}
	.st58{fill:url(#SVGID_53_);}
	.st59{fill:url(#SVGID_54_);}
	.st60{fill:url(#SVGID_55_);}
	.st61{fill:url(#SVGID_56_);}
	.st62{fill:url(#SVGID_57_);}
	.st63{fill:url(#SVGID_58_);}
	.st64{fill:url(#SVGID_59_);}
	.st65{fill:url(#SVGID_60_);}
	.st66{fill:url(#SVGID_61_);}
	.st67{fill:url(#SVGID_62_);}
	.st68{fill:url(#SVGID_63_);}
	.st69{fill:url(#SVGID_64_);}
	.st70{fill:url(#SVGID_65_);}
	.st71{fill:url(#SVGID_66_);}
	.st72{fill:url(#SVGID_67_);}
	.st73{fill:url(#SVGID_68_);}
	.st74{fill:url(#SVGID_69_);}
	.st75{fill:url(#SVGID_70_);}
	.st76{fill:url(#SVGID_71_);}
	.st77{fill:url(#SVGID_72_);}
	.st78{fill:url(#SVGID_73_);}
	.st79{fill:url(#SVGID_74_);}
	.st80{fill:url(#SVGID_75_);}
	.st81{fill:url(#SVGID_76_);}
	.st82{fill:url(#SVGID_77_);}
	.st83{fill:url(#SVGID_78_);}
	.st84{fill:url(#SVGID_79_);}
	.st85{fill:url(#SVGID_80_);}
	.st86{fill:url(#SVGID_81_);}
	.st87{fill:url(#SVGID_82_);}
	.st88{fill:url(#SVGID_83_);}
	.st89{fill:url(#SVGID_84_);}
	.st90{fill:url(#SVGID_85_);}
	.st91{fill:url(#SVGID_86_);}
	.st92{fill:url(#SVGID_87_);}
	.st93{fill:url(#SVGID_88_);}
	.st94{fill:url(#SVGID_89_);}
	.st95{fill:url(#SVGID_90_);}
	.st96{fill:url(#SVGID_91_);}
	.st97{fill:url(#SVGID_92_);}
	.st98{fill:url(#SVGID_93_);}
	.st99{fill:url(#SVGID_94_);}
	.st100{fill:url(#SVGID_95_);}
	.st101{fill:url(#SVGID_96_);}
	.st102{fill:url(#SVGID_97_);}
	.st103{fill:url(#SVGID_98_);}
	.st104{fill:url(#SVGID_99_);}
	.st105{fill:url(#SVGID_100_);}
	.st106{fill:url(#SVGID_101_);}
	.st107{fill:url(#SVGID_102_);}
	.st108{fill:url(#SVGID_103_);}
	.st109{fill:url(#SVGID_104_);}
	.st110{fill:url(#SVGID_105_);}
	.st111{fill:url(#SVGID_106_);}
	.st112{fill:url(#SVGID_107_);}
	.st113{fill:url(#SVGID_108_);}
	.st114{fill:url(#SVGID_109_);}
	.st115{fill:url(#SVGID_110_);}
	.st116{fill:url(#SVGID_111_);}
	.st117{fill:url(#SVGID_112_);}
	.st118{fill:url(#SVGID_113_);}
	.st119{fill:url(#SVGID_114_);}
	.st120{fill:url(#SVGID_115_);}
	.st121{fill:url(#SVGID_116_);}
	.st122{fill:url(#SVGID_117_);}
	.st123{fill:url(#SVGID_118_);}
	.st124{fill:url(#SVGID_119_);}
	.st125{fill:url(#SVGID_120_);}
	.st126{fill:url(#SVGID_121_);}
	.st127{fill:url(#SVGID_122_);}
	.st128{fill:url(#SVGID_123_);}
	.st129{fill:url(#SVGID_124_);}
	.st130{fill:url(#SVGID_125_);}
	.st131{fill:url(#SVGID_126_);}
	.st132{fill:url(#SVGID_127_);}
	.st133{fill:url(#SVGID_128_);}
	.st134{fill:url(#SVGID_129_);}
	.st135{fill:url(#SVGID_130_);}
	.st136{fill:url(#SVGID_131_);}
	.st137{fill:url(#SVGID_132_);}
	.st138{fill:url(#SVGID_133_);}
	.st139{fill:url(#SVGID_134_);}
	.st140{fill:url(#SVGID_135_);}
	.st141{fill:url(#SVGID_136_);}
	.st142{fill:url(#SVGID_137_);}
</style>
<g id="Mature_Tree">
	<g id="Layer_2">
	</g>
	<g id="Layer_2_copy" class="st7">
	</g>
	<g id="Layer_1">
	</g>
	<g id="Layer_13" class="st7">
	</g>
	<g id="Layer_13_copy" class="st7">
	</g>
</g>
<g id="Mat_Tree_Sparse">
	<g id="Layer_2_copy_2_1_">
	</g>
	<g id="Layer_1_copy">
	</g>
</g>
<g id="Mat_Tree_Sparse2">
	<g id="Layer_2_copy_3">
	</g>
	<g id="Layer_1_copy_2">
	</g>
</g>
<g id="Mat_Tree_dead">
	<g id="Layer_1_copy_3">
	</g>
</g>
<g id="Young_Tree">
	<g id="Layer_6">
	</g>
	<g id="Layer_6_copy">
	</g>
	<g id="Layer_5">
	</g>
</g>
<g id="Baby_Tree">
	<g id="Layer_10">
	</g>
	<g id="Layer_10_copy">
	</g>
	<g id="Layer_9">
	</g>
</g>
<g id="sprout">
	<g id="Layer_24">
	</g>
	<g id="Layer_24_copy">
	</g>
	<g id="Layer_25">
	</g>
</g>
<g id="Young_Tree_pink">
	<g id="Layer_6_copy_2">
	</g>
	<g id="Layer_5_copy">
	</g>
</g>
<g id="Baby_Tree_pink">
	<g id="Layer_10_copy_2">
	</g>
	<g id="Layer_9_copy">
	</g>
</g>
<g id="sprout_pink">
	<g id="Layer_24_copy_2_1_">
	</g>
	<g id="Layer_24_copy_2">
	</g>
	<g id="Layer_25_copy">
	</g>
</g>
<g id="Young_Tree_purple">
	<g id="Layer_6_copy_3">
	</g>
	<g id="Layer_5_copy_2">
	</g>
</g>
<g id="Baby_Tree_purple">
	<g id="Layer_10_copy_3">
	</g>
	<g id="Layer_9_copy_2">
	</g>
</g>
<g id="sprout_purple_1_">
	<g id="Layer_24_copy_3_1_">
	</g>
	<g id="Layer_24_copy_3">
	</g>
	<g id="Layer_25_copy_2">
	</g>
</g>
<g id="Young_Tree_orange_1_">
	<g id="Layer_6_copy_4">
	</g>
	<g id="Layer_5_copy_3">
	</g>
</g>
<g id="Baby_Tree_orange_1_">
	<g id="Layer_10_copy_4">
	</g>
	<g id="Layer_9_copy_3">
	</g>
</g>
<g id="sprout_purple">
	<g id="Layer_24_copy_4_1_">
	</g>
	<g id="Layer_24_copy_4">
	</g>
	<g id="Layer_25_copy_3">
	</g>
</g>
<g id="Young_Tree_red">
	<g id="Layer_6_copy_5">
	</g>
	<g id="Layer_5_copy_4">
	</g>
</g>
<g id="Baby_Tree_red">
	<g id="Layer_10_copy_5">
	</g>
	<g id="Layer_9_copy_4">
	</g>
</g>
<g id="sprout_red">
	<g id="Layer_24_copy_5_1_">
	</g>
	<g id="Layer_24_copy_5">
	</g>
	<g id="Layer_25_copy_4">
	</g>
	<g id="Layer_25_copy_5">
	</g>
</g>
<g id="Young_Tree_yellow">
	<g id="Layer_6_copy_6">
	</g>
	<g id="Layer_5_copy_5">
	</g>
</g>
<g id="Baby_Tree_yellow">
	<g id="Layer_10_copy_6">
	</g>
	<g id="Layer_9_copy_5">
	</g>
</g>
<g id="sprout_yellow">
	<g id="Layer_24_copy_6_1_">
		<linearGradient id="SVGID_1_" gradientUnits="userSpaceOnUse" x1="298.5374" y1="559.5414" x2="293.2044" y2="585.2076">
			<stop  offset="0.0242" style="stop-color:#FEDD50"/>
			<stop  offset="1" style="stop-color:#FEC20F"/>
		</linearGradient>
		<path class="st0" d="M303.64,546.13c7.62,2.86,11.49,11.37,8.62,18.99c-2.86,7.63-11.37,11.49-18.99,8.62
			c-7.62-2.86-11.49-11.37-8.62-18.99C287.51,547.12,296.01,543.27,303.64,546.13z"/>
		<linearGradient id="SVGID_2_" gradientUnits="userSpaceOnUse" x1="286.1639" y1="556.9705" x2="280.8309" y2="582.6365">
			<stop  offset="0.0242" style="stop-color:#FEDD50"/>
			<stop  offset="1" style="stop-color:#FEC20F"/>
		</linearGradient>
		<path class="st1" d="M271.77,549.92c0,0,14.55-10.29,32.45-3.57l-11.42,27.2"/>
		<linearGradient id="SVGID_3_" gradientUnits="userSpaceOnUse" x1="283.9435" y1="556.5091" x2="278.6104" y2="582.1754">
			<stop  offset="0.0242" style="stop-color:#FEDD50"/>
			<stop  offset="1" style="stop-color:#FEC20F"/>
		</linearGradient>
		<path class="st2" d="M271.77,549.92c0,0,4.08,16.95,21.5,23.82c0.19,0.08,0.38,0.15,0.58,0.23"/>
	</g>
	<g id="Layer_24_copy_6">
		<linearGradient id="SVGID_4_" gradientUnits="userSpaceOnUse" x1="355.4583" y1="571.3685" x2="350.1253" y2="597.0345">
			<stop  offset="0.0242" style="stop-color:#FEDD50"/>
			<stop  offset="1" style="stop-color:#FEC20F"/>
		</linearGradient>
		<path class="st3" d="M358.54,586.64c-7.94,1.8-15.84-3.17-17.65-11.12c-1.8-7.95,3.17-15.85,11.12-17.65
			c7.95-1.8,15.85,3.17,17.65,11.12C371.46,576.94,366.49,584.84,358.54,586.64z"/>
		<linearGradient id="SVGID_5_" gradientUnits="userSpaceOnUse" x1="365.3819" y1="573.4307" x2="360.0489" y2="599.0966">
			<stop  offset="0.0242" style="stop-color:#FEDD50"/>
			<stop  offset="1" style="stop-color:#FEC20F"/>
		</linearGradient>
		<path class="st4" d="M383.07,565.95c0,0-6.48,16.6-25.13,20.84l-5.43-29"/>
		<linearGradient id="SVGID_6_" gradientUnits="userSpaceOnUse" x1="364.8741" y1="573.325" x2="359.541" y2="598.991">
			<stop  offset="0.0242" style="stop-color:#FEDD50"/>
			<stop  offset="1" style="stop-color:#FEC20F"/>
		</linearGradient>
		<path class="st5" d="M383.07,565.95c0,0-12.73-11.9-31.06-8.06c-0.21,0.04-0.41,0.09-0.61,0.13"/>
	</g>
	<g id="Layer_25_copy_6_1_">
		<g>
			<path class="st11" d="M308.71,638.13c0.34-7.76,1.53-15.53,3.67-22.98c2.14-7.46,5.21-14.66,9.34-21.21
				c4.13-6.53,9.38-12.46,15.8-16.8c3.2-2.16,6.7-3.9,10.38-5.03c3.67-1.13,7.52-1.64,11.31-1.48v1.05
				c-3.67,0.16-7.28,0.98-10.63,2.35c-3.36,1.37-6.46,3.28-9.26,5.55c-5.6,4.56-9.96,10.47-13.24,16.86
				c-3.29,6.4-5.53,13.31-6.88,20.35c-1.35,7.05-1.81,14.22-1.49,21.38L308.71,638.13z"/>
		</g>
		<g>
			<path class="st11" d="M317.71,604.42c0.91-4.78,1.18-9.64,0.73-14.47c-0.45-4.82-1.63-9.6-3.61-14.04
				c-1.98-4.43-4.78-8.54-8.41-11.78c-3.62-3.25-8.1-5.58-12.94-6.49l0.17-1.03c5.07,0.7,9.93,2.9,13.92,6.16
				c4.02,3.24,7.2,7.45,9.53,12.05c4.67,9.24,6,20,4.56,30.22L317.71,604.42z"/>
		</g>
	</g>
	<g id="Layer_25_copy_6">
		<g>
			<path class="st11" d="M308.71,638.13c0.34-7.76,1.53-15.53,3.67-22.98c2.14-7.46,5.21-14.66,9.34-21.21
				c4.13-6.53,9.38-12.46,15.8-16.8c3.2-2.16,6.7-3.9,10.38-5.03c3.67-1.13,7.52-1.64,11.31-1.48v1.05
				c-3.67,0.16-7.28,0.98-10.63,2.35c-3.36,1.37-6.46,3.28-9.26,5.55c-5.6,4.56-9.96,10.47-13.24,16.86
				c-3.29,6.4-5.53,13.31-6.88,20.35c-1.35,7.05-1.81,14.22-1.49,21.38L308.71,638.13z"/>
		</g>
		<g>
			<path class="st11" d="M317.71,604.42c0.91-4.78,1.18-9.64,0.73-14.47c-0.45-4.82-1.63-9.6-3.61-14.04
				c-1.98-4.43-4.78-8.54-8.41-11.78c-3.62-3.25-8.1-5.58-12.94-6.49l0.17-1.03c5.07,0.7,9.93,2.9,13.92,6.16
				c4.02,3.24,7.2,7.45,9.53,12.05c4.67,9.24,6,20,4.56,30.22L317.71,604.42z"/>
		</g>
	</g>
</g>
</svg>
