<?xml version="1.0" encoding="utf-8"?>
<!-- Generator: Adobe Illustrator 23.0.6, SVG Export Plug-In . SVG Version: 6.00 Build 0)  -->
<svg version="1.1" xmlns="http://www.w3.org/2000/svg" xmlns:xlink="http://www.w3.org/1999/xlink" x="0px" y="0px"
	 viewBox="0 0 612 792" style="enable-background:new 0 0 612 792;" xml:space="preserve">
<style type="text/css">
	.st0{fill:url(#SVGID_1_);}
	.st1{fill:url(#SVGID_2_);}
	.st2{fill:url(#SVGID_3_);}
	.st3{fill:url(#SVGID_4_);}
	.st4{fill:url(#SVGID_5_);}
	.st5{fill:url(#SVGID_6_);}
	.st6{fill:url(#SVGID_7_);}
	.st7{display:none;}
	.st8{display:inline;}
	.st9{fill:#B6D446;}
	.st10{fill:#FFFFFF;}
	.st11{fill:#845530;}
	.st12{fill:#F57F20;}
	.st13{display:inline;fill:url(#SVGID_8_);}
	.st14{display:inline;fill:url(#SVGID_9_);}
	.st15{display:inline;fill:url(#SVGID_10_);}
	.st16{fill:url(#SVGID_11_);}
	.st17{fill:url(#SVGID_12_);}
	.st18{fill:url(#SVGID_13_);}
	.st19{fill:url(#SVGID_14_);}
	.st20{fill:url(#SVGID_15_);}
	.st21{fill:url(#SVGID_16_);}
	.st22{fill:url(#SVGID_17_);}
	.st23{fill:url(#SVGID_18_);}
	.st24{fill:url(#SVGID_19_);}
	.st25{fill:url(#SVGID_20_);}
	.st26{fill:url(#SVGID_21_);}
	.st27{fill:url(#SVGID_22_);}
	.st28{fill:url(#SVGID_23_);}
	.st29{fill:url(#SVGID_24_);}
	.st30{fill:url(#SVGID_25_);}
	.st31{fill:url(#SVGID_26_);}
	.st32{fill:url(#SVGID_27_);}
	.st33{fill:url(#SVGID_28_);}
	.st34{fill:url(#SVGID_29_);}
	.st35{fill:url(#SVGID_30_);}
	.st36{fill:url(#SVGID_31_);}
	.st37{fill:url(#SVGID_32_);}
	.st38{fill:url(#SVGID_33_);}
	.st39{fill:url(#SVGID_34_);}
	.st40{fill:url(#SVGID_35_);}
	.st41{fill:url(#SVGID_36_);}
	.st42{fill:url(#SVGID_37_);}
	.st43{fill:url(#SVGID_38_);}
	.st44{fill:url(#SVGID_39_);}
	.st45{fill:url(#SVGID_40_);}
	.st46{fill:url(#SVGID_41_);}
	.st47{fill:url(#SVGID_42_);}
	.st48{fill:url(#SVGID_43_);}
	.st49{fill:url(#SVGID_44_);}
	.st50{fill:url(#SVGID_45_);}
	.st51{fill:url(#SVGID_46_);}
	.st52{fill:url(#SVGID_47_);}
	.st53{fill:url(#SVGID_48_);}
	.st54{fill:url(#SVGID_49_);}
	.st55{fill:url(#SVGID_50_);}
	.st56{fill:url(#SVGID_51_);}
	.st57{fill:url(#SVGID_52_);}
	.st58{fill:url(#SVGID_53_);}
	.st59{fill:url(#SVGID_54_);}
	.st60{fill:url(#SVGID_55_);}
	.st61{fill:url(#SVGID_56_);}
	.st62{fill:url(#SVGID_57_);}
	.st63{fill:url(#SVGID_58_);}
	.st64{fill:url(#SVGID_59_);}
	.st65{fill:url(#SVGID_60_);}
	.st66{fill:url(#SVGID_61_);}
	.st67{fill:url(#SVGID_62_);}
	.st68{fill:url(#SVGID_63_);}
	.st69{fill:url(#SVGID_64_);}
	.st70{fill:url(#SVGID_65_);}
	.st71{fill:url(#SVGID_66_);}
	.st72{fill:url(#SVGID_67_);}
	.st73{fill:url(#SVGID_68_);}
	.st74{fill:url(#SVGID_69_);}
	.st75{fill:url(#SVGID_70_);}
	.st76{fill:url(#SVGID_71_);}
	.st77{fill:url(#SVGID_72_);}
	.st78{fill:url(#SVGID_73_);}
	.st79{fill:url(#SVGID_74_);}
	.st80{fill:url(#SVGID_75_);}
	.st81{fill:url(#SVGID_76_);}
	.st82{fill:url(#SVGID_77_);}
	.st83{fill:url(#SVGID_78_);}
	.st84{fill:url(#SVGID_79_);}
	.st85{fill:url(#SVGID_80_);}
	.st86{fill:url(#SVGID_81_);}
	.st87{fill:url(#SVGID_82_);}
	.st88{fill:url(#SVGID_83_);}
	.st89{fill:url(#SVGID_84_);}
	.st90{fill:url(#SVGID_85_);}
	.st91{fill:url(#SVGID_86_);}
	.st92{fill:url(#SVGID_87_);}
	.st93{fill:url(#SVGID_88_);}
	.st94{fill:url(#SVGID_89_);}
	.st95{fill:url(#SVGID_90_);}
	.st96{fill:url(#SVGID_91_);}
	.st97{fill:url(#SVGID_92_);}
	.st98{fill:url(#SVGID_93_);}
	.st99{fill:url(#SVGID_94_);}
	.st100{fill:url(#SVGID_95_);}
	.st101{fill:url(#SVGID_96_);}
	.st102{fill:url(#SVGID_97_);}
	.st103{fill:url(#SVGID_98_);}
	.st104{fill:url(#SVGID_99_);}
	.st105{fill:url(#SVGID_100_);}
	.st106{fill:url(#SVGID_101_);}
	.st107{fill:url(#SVGID_102_);}
	.st108{fill:url(#SVGID_103_);}
	.st109{fill:url(#SVGID_104_);}
	.st110{fill:url(#SVGID_105_);}
	.st111{fill:url(#SVGID_106_);}
	.st112{fill:url(#SVGID_107_);}
	.st113{fill:url(#SVGID_108_);}
	.st114{fill:url(#SVGID_109_);}
	.st115{fill:url(#SVGID_110_);}
	.st116{fill:url(#SVGID_111_);}
	.st117{fill:url(#SVGID_112_);}
	.st118{fill:url(#SVGID_113_);}
	.st119{fill:url(#SVGID_114_);}
	.st120{fill:url(#SVGID_115_);}
	.st121{fill:url(#SVGID_116_);}
	.st122{fill:url(#SVGID_117_);}
	.st123{fill:url(#SVGID_118_);}
	.st124{fill:url(#SVGID_119_);}
	.st125{fill:url(#SVGID_120_);}
	.st126{fill:url(#SVGID_121_);}
	.st127{fill:url(#SVGID_122_);}
	.st128{fill:url(#SVGID_123_);}
	.st129{fill:url(#SVGID_124_);}
	.st130{fill:url(#SVGID_125_);}
	.st131{fill:url(#SVGID_126_);}
	.st132{fill:url(#SVGID_127_);}
	.st133{fill:url(#SVGID_128_);}
	.st134{fill:url(#SVGID_129_);}
	.st135{fill:url(#SVGID_130_);}
	.st136{fill:url(#SVGID_131_);}
	.st137{fill:url(#SVGID_132_);}
	.st138{fill:url(#SVGID_133_);}
	.st139{fill:url(#SVGID_134_);}
	.st140{fill:url(#SVGID_135_);}
	.st141{fill:url(#SVGID_136_);}
	.st142{fill:url(#SVGID_137_);}
</style>
<g id="Mature_Tree">
	<g id="Layer_2">
	</g>
	<g id="Layer_2_copy" class="st7">
	</g>
	<g id="Layer_1">
	</g>
	<g id="Layer_13" class="st7">
	</g>
	<g id="Layer_13_copy" class="st7">
	</g>
</g>
<g id="Mat_Tree_Sparse">
	<g id="Layer_2_copy_2_1_">
	</g>
	<g id="Layer_1_copy">
	</g>
</g>
<g id="Mat_Tree_Sparse2">
	<g id="Layer_2_copy_3">
	</g>
	<g id="Layer_1_copy_2">
	</g>
</g>
<g id="Mat_Tree_dead">
	<g id="Layer_1_copy_3">
	</g>
</g>
<g id="Young_Tree">
	<g id="Layer_6">
	</g>
	<g id="Layer_6_copy">
	</g>
	<g id="Layer_5">
	</g>
</g>
<g id="Baby_Tree">
	<g id="Layer_10">
		<path class="st9" d="M370.93,381.41c0,19.85-16.09,35.94-35.94,35.94c-19.85,0-35.94-16.09-35.94-35.94
			c0-19.85,16.09-35.94,35.94-35.94C354.84,345.47,370.93,361.56,370.93,381.41z"/>
		<path class="st9" d="M350.91,419.19c0-18.63-15.1-33.73-33.73-33.73c-18.63,0-33.73,15.1-33.73,33.73
			c0,18.63,15.1,33.73,33.73,33.73C335.81,452.92,350.91,437.82,350.91,419.19z"/>
		<path class="st9" d="M393.3,399.68c0,17.68-14.33,32-32,32c-17.67,0-32-14.33-32-32c0-17.67,14.33-32,32-32
			C378.97,367.68,393.3,382.01,393.3,399.68z"/>
		<path class="st9" d="M373.55,480.68c0,12.3,9.97,22.27,22.27,22.27c12.3,0,22.27-9.97,22.27-22.27s-9.97-22.27-22.27-22.27
			C383.52,458.42,373.55,468.39,373.55,480.68z"/>
		<path class="st9" d="M405.71,472.81c0,9.27,7.51,16.79,16.79,16.79s16.78-7.52,16.78-16.79c0-9.27-7.51-16.79-16.78-16.79
			S405.71,463.54,405.71,472.81z"/>
		<path class="st9" d="M380.27,432.33c0,18.82-15.25,34.07-34.06,34.07c-18.81,0-34.07-15.25-34.07-34.07
			c0-18.81,15.25-34.06,34.07-34.06C365.02,398.27,380.27,413.52,380.27,432.33z"/>
		<path class="st9" d="M426.91,458.42c0,11.71-9.49,21.2-21.2,21.2c-11.71,0-21.2-9.49-21.2-21.2c0-11.71,9.49-21.2,21.2-21.2
			C417.42,437.22,426.91,446.71,426.91,458.42z"/>
	</g>
	<g id="Layer_10_copy">
		<linearGradient id="SVGID_1_" gradientUnits="userSpaceOnUse" x1="334.0184" y1="384.6617" x2="275.0185" y2="581.6621">
			<stop  offset="0" style="stop-color:#B6D446"/>
			<stop  offset="1" style="stop-color:#6FB944"/>
		</linearGradient>
		<path class="st0" d="M370.93,381.41c0,19.85-16.09,35.94-35.94,35.94c-19.85,0-35.94-16.09-35.94-35.94
			c0-19.85,16.09-35.94,35.94-35.94C354.84,345.47,370.93,361.56,370.93,381.41z"/>
		<linearGradient id="SVGID_2_" gradientUnits="userSpaceOnUse" x1="328.0628" y1="382.8778" x2="269.0631" y2="579.8776">
			<stop  offset="0" style="stop-color:#B6D446"/>
			<stop  offset="1" style="stop-color:#6FB944"/>
		</linearGradient>
		<path class="st1" d="M350.91,419.19c0-18.63-15.1-33.73-33.73-33.73c-18.63,0-33.73,15.1-33.73,33.73
			c0,18.63,15.1,33.73,33.73,33.73C335.81,452.92,350.91,437.82,350.91,419.19z"/>
		<linearGradient id="SVGID_3_" gradientUnits="userSpaceOnUse" x1="363.1797" y1="393.395" x2="304.1799" y2="590.3949">
			<stop  offset="0" style="stop-color:#B6D446"/>
			<stop  offset="1" style="stop-color:#6FB944"/>
		</linearGradient>
		<path class="st2" d="M393.3,399.68c0,17.68-14.33,32-32,32c-17.67,0-32-14.33-32-32c0-17.67,14.33-32,32-32
			C378.97,367.68,393.3,382.01,393.3,399.68z"/>
		<linearGradient id="SVGID_4_" gradientUnits="userSpaceOnUse" x1="417.1219" y1="409.5498" x2="358.1218" y2="606.5507">
			<stop  offset="0" style="stop-color:#B6D446"/>
			<stop  offset="1" style="stop-color:#6FB944"/>
		</linearGradient>
		<path class="st3" d="M373.55,480.68c0,12.3,9.97,22.27,22.27,22.27c12.3,0,22.27-9.97,22.27-22.27s-9.97-22.27-22.27-22.27
			C383.52,458.42,373.55,468.39,373.55,480.68z"/>
		<linearGradient id="SVGID_5_" gradientUnits="userSpaceOnUse" x1="439.4433" y1="416.2353" x2="380.4432" y2="613.2362">
			<stop  offset="0" style="stop-color:#B6D446"/>
			<stop  offset="1" style="stop-color:#6FB944"/>
		</linearGradient>
		<path class="st4" d="M405.71,472.81c0,9.27,7.51,16.79,16.79,16.79s16.78-7.52,16.78-16.79c0-9.27-7.51-16.79-16.78-16.79
			S405.71,463.54,405.71,472.81z"/>
		<linearGradient id="SVGID_6_" gradientUnits="userSpaceOnUse" x1="358.3035" y1="391.9347" x2="299.3037" y2="588.9348">
			<stop  offset="0" style="stop-color:#B6D446"/>
			<stop  offset="1" style="stop-color:#6FB944"/>
		</linearGradient>
		<path class="st5" d="M380.27,432.33c0,18.82-15.25,34.07-34.06,34.07c-18.81,0-34.07-15.25-34.07-34.07
			c0-18.81,15.25-34.06,34.07-34.06C365.02,398.27,380.27,413.52,380.27,432.33z"/>
		<linearGradient id="SVGID_7_" gradientUnits="userSpaceOnUse" x1="420.0835" y1="410.4376" x2="361.0841" y2="607.4363">
			<stop  offset="0" style="stop-color:#B6D446"/>
			<stop  offset="1" style="stop-color:#6FB944"/>
		</linearGradient>
		<path class="st6" d="M426.91,458.42c0,11.71-9.49,21.2-21.2,21.2c-11.71,0-21.2-9.49-21.2-21.2c0-11.71,9.49-21.2,21.2-21.2
			C417.42,437.22,426.91,446.71,426.91,458.42z"/>
	</g>
	<g id="Layer_9">
		<g>
			<g>
				<polygon class="st11" points="365.12,396.89 370.57,692.56 352.52,692.56 357.97,396.89 				"/>
			</g>
			<g>
				<line class="st10" x1="332.92" y1="428.13" x2="361.3" y2="480.68"/>
				<polygon class="st11" points="335.7,426.63 365.83,478.23 356.76,483.13 330.13,429.64 				"/>
			</g>
			<g>
				<polygon class="st11" points="355.57,534.03 393.08,466.44 398.56,469.18 367.02,539.75 				"/>
			</g>
		</g>
	</g>
</g>
<g id="sprout">
	<g id="Layer_24">
	</g>
	<g id="Layer_24_copy">
	</g>
	<g id="Layer_25">
	</g>
</g>
<g id="Young_Tree_pink">
	<g id="Layer_6_copy_2">
	</g>
	<g id="Layer_5_copy">
	</g>
</g>
<g id="Baby_Tree_pink">
	<g id="Layer_10_copy_2">
	</g>
	<g id="Layer_9_copy">
	</g>
</g>
<g id="sprout_pink">
	<g id="Layer_24_copy_2_1_">
	</g>
	<g id="Layer_24_copy_2">
	</g>
	<g id="Layer_25_copy">
	</g>
</g>
<g id="Young_Tree_purple">
	<g id="Layer_6_copy_3">
	</g>
	<g id="Layer_5_copy_2">
	</g>
</g>
<g id="Baby_Tree_purple">
	<g id="Layer_10_copy_3">
	</g>
	<g id="Layer_9_copy_2">
	</g>
</g>
<g id="sprout_purple_1_">
	<g id="Layer_24_copy_3_1_">
	</g>
	<g id="Layer_24_copy_3">
	</g>
	<g id="Layer_25_copy_2">
	</g>
</g>
<g id="Young_Tree_orange_1_">
	<g id="Layer_6_copy_4">
	</g>
	<g id="Layer_5_copy_3">
	</g>
</g>
<g id="Baby_Tree_orange_1_">
	<g id="Layer_10_copy_4">
	</g>
	<g id="Layer_9_copy_3">
	</g>
</g>
<g id="sprout_purple">
	<g id="Layer_24_copy_4_1_">
	</g>
	<g id="Layer_24_copy_4">
	</g>
	<g id="Layer_25_copy_3">
	</g>
</g>
<g id="Young_Tree_red">
	<g id="Layer_6_copy_5">
	</g>
	<g id="Layer_5_copy_4">
	</g>
</g>
<g id="Baby_Tree_red">
	<g id="Layer_10_copy_5">
	</g>
	<g id="Layer_9_copy_4">
	</g>
</g>
<g id="sprout_red">
	<g id="Layer_24_copy_5_1_">
	</g>
	<g id="Layer_24_copy_5">
	</g>
	<g id="Layer_25_copy_4">
	</g>
	<g id="Layer_25_copy_5">
	</g>
</g>
<g id="Young_Tree_yellow">
	<g id="Layer_6_copy_6">
	</g>
	<g id="Layer_5_copy_5">
	</g>
</g>
<g id="Baby_Tree_yellow">
	<g id="Layer_10_copy_6">
	</g>
	<g id="Layer_9_copy_5">
	</g>
</g>
<g id="sprout_yellow">
	<g id="Layer_24_copy_6_1_">
	</g>
	<g id="Layer_24_copy_6">
	</g>
	<g id="Layer_25_copy_6_1_">
	</g>
	<g id="Layer_25_copy_6">
	</g>
</g>
</svg>
