<?xml version="1.0" encoding="utf-8"?>
<!-- Generator: Adobe Illustrator 23.0.6, SVG Export Plug-In . SVG Version: 6.00 Build 0)  -->
<svg version="1.1" xmlns="http://www.w3.org/2000/svg" xmlns:xlink="http://www.w3.org/1999/xlink" x="0px" y="0px"
	 viewBox="0 0 612 792" style="enable-background:new 0 0 612 792;" xml:space="preserve">
<style type="text/css">
	.st0{fill:url(#SVGID_1_);}
	.st1{fill:url(#SVGID_2_);}
	.st2{fill:url(#SVGID_3_);}
	.st3{fill:url(#SVGID_4_);}
	.st4{fill:url(#SVGID_5_);}
	.st5{fill:url(#SVGID_6_);}
	.st6{fill:url(#SVGID_7_);}
	.st7{display:none;}
	.st8{display:inline;}
	.st9{fill:#B6D446;}
	.st10{fill:#FFFFFF;}
	.st11{fill:#845530;}
	.st12{fill:#F57F20;}
	.st13{display:inline;fill:url(#SVGID_8_);}
	.st14{display:inline;fill:url(#SVGID_9_);}
	.st15{display:inline;fill:url(#SVGID_10_);}
	.st16{fill:url(#SVGID_11_);}
	.st17{fill:url(#SVGID_12_);}
	.st18{fill:url(#SVGID_13_);}
	.st19{fill:url(#SVGID_14_);}
	.st20{fill:url(#SVGID_15_);}
	.st21{fill:url(#SVGID_16_);}
	.st22{fill:url(#SVGID_17_);}
	.st23{fill:url(#SVGID_18_);}
	.st24{fill:url(#SVGID_19_);}
	.st25{fill:url(#SVGID_20_);}
	.st26{fill:url(#SVGID_21_);}
	.st27{fill:url(#SVGID_22_);}
	.st28{fill:url(#SVGID_23_);}
	.st29{fill:url(#SVGID_24_);}
	.st30{fill:url(#SVGID_25_);}
	.st31{fill:url(#SVGID_26_);}
	.st32{fill:url(#SVGID_27_);}
	.st33{fill:url(#SVGID_28_);}
	.st34{fill:url(#SVGID_29_);}
	.st35{fill:url(#SVGID_30_);}
	.st36{fill:url(#SVGID_31_);}
	.st37{fill:url(#SVGID_32_);}
	.st38{fill:url(#SVGID_33_);}
	.st39{fill:url(#SVGID_34_);}
	.st40{fill:url(#SVGID_35_);}
	.st41{fill:url(#SVGID_36_);}
	.st42{fill:url(#SVGID_37_);}
	.st43{fill:url(#SVGID_38_);}
	.st44{fill:url(#SVGID_39_);}
	.st45{fill:url(#SVGID_40_);}
	.st46{fill:url(#SVGID_41_);}
	.st47{fill:url(#SVGID_42_);}
	.st48{fill:url(#SVGID_43_);}
	.st49{fill:url(#SVGID_44_);}
	.st50{fill:url(#SVGID_45_);}
	.st51{fill:url(#SVGID_46_);}
	.st52{fill:url(#SVGID_47_);}
	.st53{fill:url(#SVGID_48_);}
	.st54{fill:url(#SVGID_49_);}
	.st55{fill:url(#SVGID_50_);}
	.st56{fill:url(#SVGID_51_);}
	.st57{fill:url(#SVGID_52_);}
	.st58{fill:url(#SVGID_53_);}
	.st59{fill:url(#SVGID_54_);}
	.st60{fill:url(#SVGID_55_);}
	.st61{fill:url(#SVGID_56_);}
	.st62{fill:url(#SVGID_57_);}
	.st63{fill:url(#SVGID_58_);}
	.st64{fill:url(#SVGID_59_);}
	.st65{fill:url(#SVGID_60_);}
	.st66{fill:url(#SVGID_61_);}
	.st67{fill:url(#SVGID_62_);}
	.st68{fill:url(#SVGID_63_);}
	.st69{fill:url(#SVGID_64_);}
	.st70{fill:url(#SVGID_65_);}
	.st71{fill:url(#SVGID_66_);}
	.st72{fill:url(#SVGID_67_);}
	.st73{fill:url(#SVGID_68_);}
	.st74{fill:url(#SVGID_69_);}
	.st75{fill:url(#SVGID_70_);}
	.st76{fill:url(#SVGID_71_);}
	.st77{fill:url(#SVGID_72_);}
	.st78{fill:url(#SVGID_73_);}
	.st79{fill:url(#SVGID_74_);}
	.st80{fill:url(#SVGID_75_);}
	.st81{fill:url(#SVGID_76_);}
	.st82{fill:url(#SVGID_77_);}
	.st83{fill:url(#SVGID_78_);}
	.st84{fill:url(#SVGID_79_);}
	.st85{fill:url(#SVGID_80_);}
	.st86{fill:url(#SVGID_81_);}
	.st87{fill:url(#SVGID_82_);}
	.st88{fill:url(#SVGID_83_);}
	.st89{fill:url(#SVGID_84_);}
	.st90{fill:url(#SVGID_85_);}
	.st91{fill:url(#SVGID_86_);}
	.st92{fill:url(#SVGID_87_);}
	.st93{fill:url(#SVGID_88_);}
	.st94{fill:url(#SVGID_89_);}
	.st95{fill:url(#SVGID_90_);}
	.st96{fill:url(#SVGID_91_);}
	.st97{fill:url(#SVGID_92_);}
	.st98{fill:url(#SVGID_93_);}
	.st99{fill:url(#SVGID_94_);}
	.st100{fill:url(#SVGID_95_);}
	.st101{fill:url(#SVGID_96_);}
	.st102{fill:url(#SVGID_97_);}
	.st103{fill:url(#SVGID_98_);}
	.st104{fill:url(#SVGID_99_);}
	.st105{fill:url(#SVGID_100_);}
	.st106{fill:url(#SVGID_101_);}
	.st107{fill:url(#SVGID_102_);}
	.st108{fill:url(#SVGID_103_);}
	.st109{fill:url(#SVGID_104_);}
	.st110{fill:url(#SVGID_105_);}
	.st111{fill:url(#SVGID_106_);}
	.st112{fill:url(#SVGID_107_);}
	.st113{fill:url(#SVGID_108_);}
	.st114{fill:url(#SVGID_109_);}
	.st115{fill:url(#SVGID_110_);}
	.st116{fill:url(#SVGID_111_);}
	.st117{fill:url(#SVGID_112_);}
	.st118{fill:url(#SVGID_113_);}
	.st119{fill:url(#SVGID_114_);}
	.st120{fill:url(#SVGID_115_);}
	.st121{fill:url(#SVGID_116_);}
	.st122{fill:url(#SVGID_117_);}
	.st123{fill:url(#SVGID_118_);}
	.st124{fill:url(#SVGID_119_);}
	.st125{fill:url(#SVGID_120_);}
	.st126{fill:url(#SVGID_121_);}
	.st127{fill:url(#SVGID_122_);}
	.st128{fill:url(#SVGID_123_);}
	.st129{fill:url(#SVGID_124_);}
	.st130{fill:url(#SVGID_125_);}
	.st131{fill:url(#SVGID_126_);}
	.st132{fill:url(#SVGID_127_);}
	.st133{fill:url(#SVGID_128_);}
	.st134{fill:url(#SVGID_129_);}
	.st135{fill:url(#SVGID_130_);}
	.st136{fill:url(#SVGID_131_);}
	.st137{fill:url(#SVGID_132_);}
	.st138{fill:url(#SVGID_133_);}
	.st139{fill:url(#SVGID_134_);}
	.st140{fill:url(#SVGID_135_);}
	.st141{fill:url(#SVGID_136_);}
	.st142{fill:url(#SVGID_137_);}
</style>
<g id="Mature_Tree">
	<g id="Layer_2">
		<linearGradient id="SVGID_1_" gradientUnits="userSpaceOnUse" x1="387.4897" y1="42.4046" x2="387.4897" y2="569.3579">
			<stop  offset="0" style="stop-color:#B6D446"/>
			<stop  offset="1" style="stop-color:#6FB944"/>
		</linearGradient>
		<circle class="st0" cx="387.49" cy="193.4" r="142.11"/>
		<linearGradient id="SVGID_2_" gradientUnits="userSpaceOnUse" x1="489.7744" y1="42.4054" x2="489.7744" y2="569.3552">
			<stop  offset="0" style="stop-color:#B6D446"/>
			<stop  offset="1" style="stop-color:#6FB944"/>
		</linearGradient>
		<circle class="st1" cx="489.77" cy="314.97" r="106.03"/>
		<linearGradient id="SVGID_3_" gradientUnits="userSpaceOnUse" x1="222.092" y1="42.4044" x2="222.092" y2="569.3586">
			<stop  offset="0" style="stop-color:#B6D446"/>
			<stop  offset="1" style="stop-color:#6FB944"/>
		</linearGradient>
		<path class="st2" d="M118.42,389.39c0,55.87,46.41,101.15,103.67,101.15c57.26,0,103.67-45.29,103.67-101.15
			c0-55.86-46.41-101.15-103.67-101.15C164.84,288.24,118.42,333.53,118.42,389.39z"/>
		<linearGradient id="SVGID_4_" gradientUnits="userSpaceOnUse" x1="211.4551" y1="42.4047" x2="211.4551" y2="569.3555">
			<stop  offset="0" style="stop-color:#B6D446"/>
			<stop  offset="1" style="stop-color:#6FB944"/>
		</linearGradient>
		<circle class="st3" cx="211.45" cy="214.51" r="121"/>
		<linearGradient id="SVGID_5_" gradientUnits="userSpaceOnUse" x1="118.4219" y1="42.4049" x2="118.4219" y2="569.3573">
			<stop  offset="0" style="stop-color:#B6D446"/>
			<stop  offset="1" style="stop-color:#6FB944"/>
		</linearGradient>
		<path class="st4" d="M30.19,309.22c0,48.73,39.5,88.23,88.23,88.23c48.73,0,88.23-39.5,88.23-88.23
			c0-48.73-39.5-88.23-88.23-88.23C69.69,220.99,30.19,260.49,30.19,309.22z"/>
		<linearGradient id="SVGID_6_" gradientUnits="userSpaceOnUse" x1="383.7408" y1="42.4035" x2="383.7408" y2="569.3564">
			<stop  offset="0" style="stop-color:#B6D446"/>
			<stop  offset="1" style="stop-color:#6FB944"/>
		</linearGradient>
		<path class="st5" d="M280.07,389.39c0,55.87,46.41,101.15,103.67,101.15c57.25,0,103.67-45.29,103.67-101.15
			c0-55.86-46.41-101.15-103.67-101.15C326.49,288.24,280.07,333.53,280.07,389.39z"/>
		<linearGradient id="SVGID_7_" gradientUnits="userSpaceOnUse" x1="297.4023" y1="42.404" x2="297.4023" y2="569.3564">
			<stop  offset="0" style="stop-color:#B6D446"/>
			<stop  offset="1" style="stop-color:#6FB944"/>
		</linearGradient>
		<ellipse class="st6" cx="297.4" cy="313.87" rx="42.22" ry="43.48"/>
	</g>
	<g id="Layer_2_copy" class="st7">
		<g class="st8">
			
				<ellipse transform="matrix(0.7071 -0.7071 0.7071 0.7071 -23.263 330.643)" class="st9" cx="387.49" cy="193.4" rx="142.11" ry="142.11"/>
			
				<ellipse transform="matrix(0.7071 -0.7071 0.7071 0.7071 -79.2664 438.5756)" class="st9" cx="489.77" cy="314.97" rx="106.03" ry="106.03"/>
			<path class="st9" d="M118.42,389.39c0,55.87,46.41,101.15,103.67,101.15c57.26,0,103.67-45.29,103.67-101.15
				c0-55.86-46.41-101.15-103.67-101.15C164.84,288.24,118.42,333.53,118.42,389.39z"/>
			
				<ellipse transform="matrix(0.7071 -0.7071 0.7071 0.7071 -89.7508 212.3509)" class="st9" cx="211.45" cy="214.51" rx="121" ry="121"/>
			<path class="st9" d="M30.19,309.22c0,48.73,39.5,88.23,88.23,88.23c48.73,0,88.23-39.5,88.23-88.23
				c0-48.73-39.5-88.23-88.23-88.23C69.69,220.99,30.19,260.49,30.19,309.22z"/>
			<path class="st9" d="M280.07,389.39c0,55.87,46.41,101.15,103.67,101.15c57.25,0,103.67-45.29,103.67-101.15
				c0-55.86-46.41-101.15-103.67-101.15C326.49,288.24,280.07,333.53,280.07,389.39z"/>
			<ellipse class="st9" cx="297.4" cy="313.87" rx="42.22" ry="43.48"/>
		</g>
	</g>
	<g id="Layer_1">
		<g>
			<g>
				<polygon class="st11" points="303.53,206.42 322.83,666.08 274.83,666.08 294.13,206.42 				"/>
			</g>
			<g>
				<line class="st10" x1="186.83" y1="283.92" x2="298.83" y2="412.92"/>
				<polygon class="st11" points="189.22,281.84 306.38,406.36 291.28,419.47 184.44,285.99 				"/>
			</g>
			<g>
				<line class="st12" x1="186.83" y1="341.92" x2="242.83" y2="348.42"/>
				<polygon class="st11" points="187.26,338.23 243.74,340.59 241.92,356.25 186.41,345.6 				"/>
			</g>
			<g>
				<polygon class="st11" points="290.76,468.9 413.62,377.7 411.23,381.75 433.66,269.18 442,270.65 424.44,384.08 424.09,386.35 
					422.04,388.14 306.91,488.93 				"/>
			</g>
			<g>
				<line class="st10" x1="358.52" y1="430.77" x2="460.83" y2="399.92"/>
				<polygon class="st11" points="356.35,423.57 459.61,395.86 462.06,403.97 360.69,437.96 				"/>
			</g>
			<g>
				<line class="st10" x1="297.82" y1="330.94" x2="393.82" y2="233.94"/>
				<polygon class="st11" points="290.72,323.9 390.81,230.96 396.83,236.92 304.93,337.97 				"/>
			</g>
		</g>
	</g>
	<g id="Layer_13" class="st7">
		<linearGradient id="SVGID_8_" gradientUnits="userSpaceOnUse" x1="437.835" y1="308.9998" x2="437.835" y2="386.9996">
			<stop  offset="0" style="stop-color:#B6D446;stop-opacity:0.5"/>
			<stop  offset="1" style="stop-color:#6FB944"/>
		</linearGradient>
		<path class="st13" d="M524.06,340.27c0,30.16-24.45,54.61-54.62,54.61c-5.59,0-10.99-0.84-16.07-2.4
			c-10.73,11.38-25.96,18.48-42.84,18.48c-32.54,0-58.92-26.37-58.92-58.91c0-29.51,21.69-53.95,50-58.25
			c3.7-24.29,24.67-42.89,49.99-42.89c26.2,0,47.75,19.92,50.31,45.45C515.35,306.3,524.06,322.27,524.06,340.27z"/>
	</g>
	<g id="Layer_13_copy" class="st7">
		<linearGradient id="SVGID_9_" gradientUnits="userSpaceOnUse" x1="177.3389" y1="243" x2="177.3389" y2="385.5066">
			<stop  offset="0" style="stop-color:#B6D446"/>
			<stop  offset="1" style="stop-color:#6FB944"/>
		</linearGradient>
		<circle class="st14" cx="177.34" cy="269.92" r="58.92"/>
		<linearGradient id="SVGID_10_" gradientUnits="userSpaceOnUse" x1="236.2558" y1="243" x2="236.2558" y2="385.5057">
			<stop  offset="0" style="stop-color:#B6D446"/>
			<stop  offset="1" style="stop-color:#6FB944"/>
		</linearGradient>
		<circle class="st15" cx="236.26" cy="275.28" r="50.57"/>
	</g>
</g>
<g id="Mat_Tree_Sparse">
	<g id="Layer_2_copy_2_1_">
	</g>
	<g id="Layer_1_copy">
	</g>
</g>
<g id="Mat_Tree_Sparse2">
	<g id="Layer_2_copy_3">
	</g>
	<g id="Layer_1_copy_2">
	</g>
</g>
<g id="Mat_Tree_dead">
	<g id="Layer_1_copy_3">
	</g>
</g>
<g id="Young_Tree">
	<g id="Layer_6">
	</g>
	<g id="Layer_6_copy">
	</g>
	<g id="Layer_5">
	</g>
</g>
<g id="Baby_Tree">
	<g id="Layer_10">
	</g>
	<g id="Layer_10_copy">
	</g>
	<g id="Layer_9">
	</g>
</g>
<g id="sprout">
	<g id="Layer_24">
	</g>
	<g id="Layer_24_copy">
	</g>
	<g id="Layer_25">
	</g>
</g>
<g id="Young_Tree_pink">
	<g id="Layer_6_copy_2">
	</g>
	<g id="Layer_5_copy">
	</g>
</g>
<g id="Baby_Tree_pink">
	<g id="Layer_10_copy_2">
	</g>
	<g id="Layer_9_copy">
	</g>
</g>
<g id="sprout_pink">
	<g id="Layer_24_copy_2_1_">
	</g>
	<g id="Layer_24_copy_2">
	</g>
	<g id="Layer_25_copy">
	</g>
</g>
<g id="Young_Tree_purple">
	<g id="Layer_6_copy_3">
	</g>
	<g id="Layer_5_copy_2">
	</g>
</g>
<g id="Baby_Tree_purple">
	<g id="Layer_10_copy_3">
	</g>
	<g id="Layer_9_copy_2">
	</g>
</g>
<g id="sprout_purple_1_">
	<g id="Layer_24_copy_3_1_">
	</g>
	<g id="Layer_24_copy_3">
	</g>
	<g id="Layer_25_copy_2">
	</g>
</g>
<g id="Young_Tree_orange_1_">
	<g id="Layer_6_copy_4">
	</g>
	<g id="Layer_5_copy_3">
	</g>
</g>
<g id="Baby_Tree_orange_1_">
	<g id="Layer_10_copy_4">
	</g>
	<g id="Layer_9_copy_3">
	</g>
</g>
<g id="sprout_purple">
	<g id="Layer_24_copy_4_1_">
	</g>
	<g id="Layer_24_copy_4">
	</g>
	<g id="Layer_25_copy_3">
	</g>
</g>
<g id="Young_Tree_red">
	<g id="Layer_6_copy_5">
	</g>
	<g id="Layer_5_copy_4">
	</g>
</g>
<g id="Baby_Tree_red">
	<g id="Layer_10_copy_5">
	</g>
	<g id="Layer_9_copy_4">
	</g>
</g>
<g id="sprout_red">
	<g id="Layer_24_copy_5_1_">
	</g>
	<g id="Layer_24_copy_5">
	</g>
	<g id="Layer_25_copy_4">
	</g>
	<g id="Layer_25_copy_5">
	</g>
</g>
<g id="Young_Tree_yellow">
	<g id="Layer_6_copy_6">
	</g>
	<g id="Layer_5_copy_5">
	</g>
</g>
<g id="Baby_Tree_yellow">
	<g id="Layer_10_copy_6">
	</g>
	<g id="Layer_9_copy_5">
	</g>
</g>
<g id="sprout_yellow">
	<g id="Layer_24_copy_6_1_">
	</g>
	<g id="Layer_24_copy_6">
	</g>
	<g id="Layer_25_copy_6_1_">
	</g>
	<g id="Layer_25_copy_6">
	</g>
</g>
</svg>
